nColumns=28
nRows=73
DataType=double
version=3
OpenSimVersion=4.1
endheader
time	ground_force_1_vx	ground_force_1_vy	ground_force_1_vz	ground_force_1_px	ground_force_1_py	ground_force_1_pz	ground_force_1_mx	ground_force_1_my	ground_force_1_mz	ground_force_2_vx	ground_force_2_vy	ground_force_2_vz	ground_force_2_px	ground_force_2_py	ground_force_2_pz	ground_force_2_mx	ground_force_2_my	ground_force_2_mz	ground_force_3_vx	ground_force_3_vy	ground_force_3_vz	ground_force_3_px	ground_force_3_py	ground_force_3_pz	ground_force_3_mx	ground_force_3_my	ground_force_3_mz
6.75	-8.72788	516.134	-64.3541	-0.24638	0.006	-0.337884	0	-0.935415	0	-3.75092	130.148	18.4748	-0.261359	0.006	-0.905616	0	1.08785	0	0	0	0	0	0	0	0	0	0
6.76	-8.35905	500.301	-62.494	-0.245941	0.006	-0.337827	0	-0.85381	0	-3.74164	135.373	19.8714	-0.263137	0.006	-0.905836	0	1.06016	0	0	0	0	0	0	0	0	0	0
6.77	-7.85637	483.529	-60.2641	-0.245608	0.006	-0.337826	0	-0.781621	0	-3.73757	142.076	21.384	-0.265135	0.006	-0.905886	0	1.03834	0	0	0	0	0	0	0	0	0	0
6.78	-7.24446	465.89	-57.7082	-0.245374	0.006	-0.337877	0	-0.719992	0	-3.73413	150.313	23.0249	-0.267264	0.006	-0.905786	0	1.02576	0	0	0	0	0	0	0	0	0	0
6.79	-6.55697	447.516	-54.8803	-0.24523	0.006	-0.337972	0	-0.669416	0	-3.72522	160.096	24.8028	-0.269429	0.006	-0.905567	0	1.02516	0	0	0	0	0	0	0	0	0	0
6.8	-5.83259	428.611	-51.8429	-0.245165	0.006	-0.338107	0	-0.629776	0	-3.7061	171.394	26.7235	-0.271536	0.006	-0.905263	0	1.03833	0	0	0	0	0	0	0	0	0	0
6.81	-5.10711	409.437	-48.6656	-0.245167	0.006	-0.338272	0	-0.600631	0	-3.67486	184.132	28.7923	-0.2735	0.006	-0.904911	0	1.06608	0	0	0	0	0	0	0	0	0	0
6.82	-4.40858	390.295	-45.4237	-0.245223	0.006	-0.338461	0	-0.581447	0	-3.63267	198.2	31.0156	-0.275255	0.006	-0.904544	0	1.10813	0	0	0	0	0	0	0	0	0	0
6.83	-3.7593	371.502	-42.1939	-0.24532	0.006	-0.33866	0	-0.571708	0	-3.58278	213.456	33.401	-0.276748	0.006	-0.904195	0	1.16333	0	0	0	0	0	0	0	0	0	0
6.84	-3.18026	353.368	-39.0498	-0.245441	0.006	-0.338859	0	-0.570899	0	-3.52852	229.734	35.9547	-0.277946	0.006	-0.903888	0	1.22959	0	0	0	0	0	0	0	0	0	0
6.85	-2.69269	336.19	-36.0591	-0.245564	0.006	-0.339043	0	-0.578596	0	-3.47305	246.855	38.6819	-0.278829	0.006	-0.903644	0	1.30407	0	0	0	0	0	0	0	0	0	0
6.86	-2.31693	320.232	-33.2828	-0.245662	0.006	-0.339195	0	-0.59463	0	-3.42163	264.638	41.5856	-0.279389	0.006	-0.903475	0	1.38348	0	0	0	0	0	0	0	0	0	0
6.87	-2.07019	305.721	-30.7739	-0.245707	0.006	-0.339295	0	-0.619286	0	-3.38412	282.911	44.6657	-0.279626	0.006	-0.903388	0	1.46426	0	0	0	0	0	0	0	0	0	0
6.88	-1.96487	292.824	-28.5746	-0.245664	0.006	-0.339325	0	-0.653408	0	-3.37605	301.523	47.9191	-0.279548	0.006	-0.903387	0	1.54265	0	0	0	0	0	0	0	0	0	0
6.89	-2.00877	281.643	-26.7129	-0.2455	0.006	-0.339268	0	-0.698259	0	-3.4161	320.34	51.3393	-0.279169	0.006	-0.903471	0	1.61499	0	0	0	0	0	0	0	0	0	0
6.9	-2.20646	272.21	-25.2008	-0.245187	0.006	-0.33911	0	-0.755217	0	-3.52034	339.243	54.9166	-0.278508	0.006	-0.903636	0	1.67789	0	0	0	0	0	0	0	0	0	0
6.91	-2.56002	264.489	-24.0339	-0.244698	0.006	-0.338846	0	-0.825497	0	-3.69911	358.121	58.6349	-0.277589	0.006	-0.903875	0	1.72824	0	0	0	0	0	0	0	0	0	0
6.92	-3.06852	258.386	-23.1895	-0.244017	0.006	-0.33848	0	-0.909968	0	-3.9583	376.867	62.4682	-0.276435	0.006	-0.904178	0	1.76329	0	0	0	0	0	0	0	0	0	0
6.93	-3.72667	253.754	-22.6286	-0.243133	0.006	-0.338025	0	-1.009	0	-4.3006	395.364	66.3798	-0.275074	0.006	-0.904534	0	1.78106	0	0	0	0	0	0	0	0	0	0
6.94	-4.52365	250.406	-22.2993	-0.242047	0.006	-0.337504	0	-1.1224	0	-4.72584	413.476	70.3232	-0.273533	0.006	-0.90493	0	1.78056	0	0	0	0	0	0	0	0	0	0
6.95	-5.44289	248.128	-22.1437	-0.240767	0.006	-0.336943	0	-1.24933	0	-5.23029	431.04	74.2434	-0.271845	0.006	-0.905353	0	1.76214	0	0	0	0	0	0	0	0	0	0
6.96	-6.46299	246.692	-22.1029	-0.239311	0.006	-0.33637	0	-1.38838	0	-5.80459	447.874	78.0787	-0.270041	0.006	-0.905789	0	1.72759	0	0	0	0	0	0	0	0	0	0
6.97	-7.55744	245.864	-22.1206	-0.237705	0.006	-0.33581	0	-1.53761	0	-6.43212	463.787	81.765	-0.268158	0.006	-0.906224	0	1.68005	0	0	0	0	0	0	0	0	0	0
6.98	-8.69332	245.409	-22.1443	-0.235984	0.006	-0.335285	0	-1.69447	0	-7.08918	478.604	85.2411	-0.266232	0.006	-0.906647	0	1.62347	0	0	0	0	0	0	0	0	0	0
6.99	-9.83165	245.103	-22.1284	-0.234187	0.006	-0.334813	0	-1.85595	0	-7.74888	492.196	88.4547	-0.264302	0.006	-0.907045	0	1.56214	0	0	0	0	0	0	0	0	0	0
7	-10.9346	244.752	-22.0369	-0.232355	0.006	-0.334408	0	-2.01877	0	-8.38601	504.479	91.3667	-0.262404	0.006	-0.907412	0	1.50008	0	0	0	0	0	0	0	0	0	0
7.01	-11.9744	244.206	-21.8476	-0.230525	0.006	-0.334079	0	-2.17968	0	-8.97977	515.413	93.9507	-0.260573	0.006	-0.907739	0	1.44046	0	0	0	0	0	0	0	0	0	0
7.02	-12.9362	243.377	-21.5543	-0.22873	0.006	-0.333828	0	-2.3354	0	-9.51582	524.978	96.1889	-0.258833	0.006	-0.908023	0	1.38524	0	0	0	0	0	0	0	0	0	0
7.03	-13.8153	242.24	-21.1685	-0.227004	0.006	-0.333655	0	-2.48264	0	-9.98835	533.154	98.0677	-0.257202	0.006	-0.908261	0	1.33528	0	0	0	0	0	0	0	0	0	0
7.04	-14.6135	240.835	-20.7195	-0.225381	0.006	-0.333556	0	-2.61793	0	-10.4015	539.925	99.5744	-0.255687	0.006	-0.908451	0	1.29053	0	0	0	0	0	0	0	0	0	0
7.05	-15.3352	239.251	-20.2506	-0.223904	0.006	-0.333524	0	-2.73756	0	-10.7681	545.285	100.699	-0.254287	0.006	-0.908594	0	1.25044	0	0	0	0	0	0	0	0	0	0
7.06	-15.9841	237.612	-19.8116	-0.222615	0.006	-0.333553	0	-2.83782	0	-11.1053	549.255	101.438	-0.252997	0.006	-0.908691	0	1.21438	0	0	0	0	0	0	0	0	0	0
7.07	-16.5613	236.061	-19.453	-0.221562	0.006	-0.333636	0	-2.91515	0	-11.4303	551.89	101.796	-0.251813	0.006	-0.908741	0	1.18173	0	0	0	0	0	0	0	0	0	0
7.08	-17.0644	234.743	-19.222	-0.220791	0.006	-0.333764	0	-2.96651	0	-11.7567	553.288	101.792	-0.250728	0.006	-0.908748	0	1.15205	0	0	0	0	0	0	0	0	0	0
7.09	-17.4876	233.801	-19.1585	-0.220345	0.006	-0.333931	0	-2.98977	0	-12.0919	553.585	101.45	-0.249742	0.006	-0.908711	0	1.12526	0	0	0	0	0	0	0	0	0	0
7.1	-17.825	233.351	-19.2909	-0.220261	0.006	-0.334129	0	-2.98399	0	-12.4372	552.944	100.803	-0.248858	0.006	-0.908635	0	1.10152	0	0	0	0	0	0	0	0	0	0
7.11	-18.0727	233.48	-19.6331	-0.22056	0.006	-0.334355	0	-2.94967	0	-12.7885	551.538	99.8937	-0.24808	0.006	-0.908521	0	1.08119	0	0	0	0	0	0	0	0	0	0
7.12	-18.228	234.237	-20.1834	-0.22125	0.006	-0.334602	0	-2.8889	0	-13.14	549.535	98.7673	-0.247416	0.006	-0.908375	0	1.06468	0	0	0	0	0	0	0	0	0	0
7.13	-18.2872	235.63	-20.925	-0.222321	0.006	-0.33487	0	-2.80521	0	-13.487	547.076	97.4739	-0.246873	0.006	-0.908201	0	1.05233	0	0	0	0	0	0	0	0	0	0
7.14	-18.2453	237.626	-21.8282	-0.223752	0.006	-0.33516	0	-2.70325	0	-13.8257	544.267	96.0621	-0.246461	0.006	-0.908003	0	1.0442	0	0	0	0	0	0	0	0	0	0
7.15	-18.0996	240.168	-22.8536	-0.22551	0.006	-0.335473	0	-2.58835	0	-14.151	541.176	94.5744	-0.246187	0.006	-0.907787	0	1.04008	0	0	0	0	0	0	0	0	0	0
7.16	-17.8522	243.17	-23.9551	-0.227553	0.006	-0.335813	0	-2.46585	0	-14.4566	537.836	93.047	-0.246063	0.006	-0.907555	0	1.03964	0	0	0	0	0	0	0	0	0	0
7.17	-17.5105	246.53	-25.0844	-0.229831	0.006	-0.336182	0	-2.3405	0	-14.7364	534.27	91.5094	-0.246101	0.006	-0.907311	0	1.04247	0	0	0	0	0	0	0	0	0	0
7.18	-17.0871	250.129	-26.195	-0.232295	0.006	-0.33658	0	-2.21606	0	-14.9824	530.491	89.9864	-0.246316	0.006	-0.907056	0	1.04825	0	0	0	0	0	0	0	0	0	0
7.19	-16.5976	253.838	-27.2465	-0.234893	0.006	-0.337006	0	-2.09505	0	-15.1837	526.519	88.4995	-0.246728	0.006	-0.90679	0	1.05684	0	0	0	0	0	0	0	0	0	0
7.2	-16.0588	257.521	-28.2061	-0.237583	0.006	-0.337458	0	-1.97882	0	-15.3282	522.373	87.0668	-0.247361	0.006	-0.906511	0	1.06833	0	0	0	0	0	0	0	0	0	0
7.21	-15.4859	261.047	-29.0478	-0.240332	0.006	-0.337933	0	-1.86762	0	-15.4028	518.069	85.7002	-0.248241	0.006	-0.906214	0	1.08318	0	0	0	0	0	0	0	0	0	0
7.22	-14.8916	264.29	-29.7506	-0.243121	0.006	-0.338431	0	-1.76083	0	-15.3916	513.616	84.4027	-0.249396	0.006	-0.905892	0	1.10208	0	0	0	0	0	0	0	0	0	0
7.23	-14.2855	267.141	-30.2975	-0.245941	0.006	-0.338955	0	-1.65729	0	-15.2768	509.015	83.1665	-0.250857	0.006	-0.905534	0	1.12587	0	0	0	0	0	0	0	0	0	0
7.24	-13.6732	269.502	-30.6748	-0.248795	0.006	-0.339507	0	-1.55549	0	-15.0419	504.276	81.9755	-0.252655	0.006	-0.905129	0	1.1555	0	0	0	0	0	0	0	0	0	0
7.25	-13.0572	271.289	-30.8717	-0.251684	0.006	-0.340092	0	-1.45368	0	-14.672	499.423	80.8084	-0.254819	0.006	-0.904662	0	1.19171	0	0	0	0	0	0	0	0	0	0
7.26	-12.4379	272.429	-30.8798	-0.254613	0.006	-0.340713	0	-1.35019	0	-14.1522	494.507	79.6438	-0.257377	0.006	-0.904121	0	1.2348	0	0	0	0	0	0	0	0	0	0
7.27	-11.8176	272.859	-30.6929	-0.257575	0.006	-0.341371	0	-1.24346	0	-13.4668	489.608	78.4657	-0.260347	0.006	-0.903495	0	1.28434	0	0	0	0	0	0	0	0	0	0
7.28	-11.2034	272.526	-30.3061	-0.260551	0.006	-0.342066	0	-1.13227	0	-12.6026	484.829	77.2665	-0.263734	0.006	-0.902778	0	1.33905	0	0	0	0	0	0	0	0	0	0
7.29	-10.6074	271.382	-29.7155	-0.263519	0.006	-0.342795	0	-1.01571	0	-11.5515	480.276	76.0489	-0.267524	0.006	-0.90197	0	1.39654	0	0	0	0	0	0	0	0	0	0
7.3	-10.0429	269.389	-28.9178	-0.266448	0.006	-0.343555	0	-0.893239	0	-10.3139	476.033	74.8223	-0.271678	0.006	-0.901076	0	1.4536	0	0	0	0	0	0	0	0	0	0
7.31	-9.51803	266.529	-27.9125	-0.26931	0.006	-0.344344	0	-0.764858	0	-8.90016	472.138	73.5981	-0.276136	0.006	-0.90011	0	1.50667	0	0	0	0	0	0	0	0	0	0
7.32	-9.03057	262.805	-26.7059	-0.272082	0.006	-0.345161	0	-0.631232	0	-7.3306	468.577	72.3873	-0.280817	0.006	-0.899088	0	1.55197	0	0	0	0	0	0	0	0	0	0
7.33	-8.56736	258.255	-25.3133	-0.274747	0.006	-0.346	0	-0.493714	0	-5.63552	465.29	71.2003	-0.285627	0.006	-0.898031	0	1.58573	0	0	0	0	0	0	0	0	0	0
7.34	-8.10875	252.955	-23.7612	-0.277291	0.006	-0.346858	0	-0.354288	0	-3.85646	462.185	70.0489	-0.290469	0.006	-0.896962	0	1.60448	0	0	0	0	0	0	0	0	0	0
7.35	-7.63452	247.022	-22.0867	-0.279704	0.006	-0.347726	0	-0.21535	0	-2.04478	459.151	68.9474	-0.295247	0.006	-0.895904	0	1.60539	0	0	0	0	0	0	0	0	0	0
7.36	-7.12484	240.612	-20.3353	-0.281979	0.006	-0.348594	0	-0.079445	0	-0.256617	456.071	67.913	-0.299874	0.006	-0.89488	0	1.58658	0	0	0	0	0	0	0	0	0	0
7.37	-6.56134	233.923	-18.5588	-0.28411	0.006	-0.349448	0	0.050945	0	1.45245	452.831	66.963	-0.304279	0.006	-0.89391	0	1.54729	0	0	0	0	0	0	0	0	0	0
7.38	-5.92795	227.193	-16.8131	-0.286097	0.006	-0.350272	0	0.173621	0	3.03117	449.325	66.1123	-0.308404	0.006	-0.893009	0	1.48793	0	0	0	0	0	0	0	0	0	0
7.39	-5.20933	220.692	-15.154	-0.287943	0.006	-0.351046	0	0.286801	0	4.43782	445.453	65.3697	-0.312213	0.006	-0.892191	0	1.41027	0	0	0	0	0	0	0	0	0	0
7.4	-4.38854	214.712	-13.6348	-0.289657	0.006	-0.35175	0	0.389043	0	5.64377	441.122	64.7335	-0.315683	0.006	-0.891463	0	1.31737	0	0	0	0	0	0	0	0	0	0
7.41	-3.44362	209.54	-12.3028	-0.291254	0.006	-0.352363	0	0.479044	0	6.63178	436.246	64.1843	-0.318809	0.006	-0.890824	0	1.21333	0	0	0	0	0	0	0	0	0	0
7.42	-2.34848	205.425	-11.1973	-0.292757	0.006	-0.352868	0	0.55562	0	7.39369	430.761	63.683	-0.321601	0.006	-0.890271	0	1.10285	0	0	0	0	0	0	0	0	0	0
7.43	-1.07882	202.554	-10.3457	-0.294194	0.006	-0.353255	0	0.617765	0	7.92937	424.638	63.1775	-0.324079	0.006	-0.889793	0	0.990718	0	0	0	0	0	0	0	0	0	0
7.44	0.383419	201.037	-9.75907	-0.295594	0.006	-0.353523	0	0.664849	0	8.24476	417.893	62.6133	-0.32627	0.006	-0.889375	0	0.881701	0	0	0	0	0	0	0	0	0	0
7.45	2.04677	200.899	-9.42985	-0.296986	0.006	-0.35368	0	0.696721	0	8.35318	410.593	61.9436	-0.328203	0.006	-0.889004	0	0.78012	0	0	0	0	0	0	0	0	0	0
7.46	3.90603	202.1	-9.33226	-0.298388	0.006	-0.353745	0	0.71364	0	8.27955	402.85	61.1362	-0.329908	0.006	-0.888668	0	0.689656	0	0	0	0	0	0	0	0	0	0
7.47	5.93772	204.547	-9.42681	-0.299801	0.006	-0.353744	0	0.716187	0	8.06025	394.819	60.1763	-0.331411	0.006	-0.888356	0	0.613317	0	0	0	0	0	0	0	0	0	0
